<?xml version="1.0" encoding="UTF-8" standalone="no"?>
<svg
   width="331.56"
   height="121.441"
   viewBox="0 0 331.56 121.441"
   version="1.1"
   id="svg1"
   sodipodi:docname="favicon.svg"
   inkscape:version="1.3.2 (091e20e, 2023-11-25, custom)"
   xmlns:inkscape="http://www.inkscape.org/namespaces/inkscape"
   xmlns:sodipodi="http://sodipodi.sourceforge.net/DTD/sodipodi-0.dtd"
   xmlns="http://www.w3.org/2000/svg"
   xmlns:svg="http://www.w3.org/2000/svg">
  <defs
     id="defs1" />
  <sodipodi:namedview
     id="namedview1"
     pagecolor="#ffffff"
     bordercolor="#000000"
     borderopacity="0.25"
     inkscape:showpageshadow="2"
     inkscape:pageopacity="0.0"
     inkscape:pagecheckerboard="0"
     inkscape:deskcolor="#d1d1d1"
     inkscape:zoom="1.1964257"
     inkscape:cx="112.83609"
     inkscape:cy="84.836024"
     inkscape:window-width="1920"
     inkscape:window-height="1009"
     inkscape:window-x="1912"
     inkscape:window-y="-8"
     inkscape:window-maximized="1"
     inkscape:current-layer="svg1" />
  <rect
     style="fill:#000000;fill-opacity:1"
     id="rect3"
     width="351.04562"
     height="126.20926"
     x="-6.686583"
     y="-3.3432915"
     ry="0.88388348" />
  <g
     id="svgGroup"
     stroke-linecap="round"
     fill-rule="evenodd"
     font-size="9pt"
     stroke="#000000"
     stroke-width="0.25mm"
     fill="#000000"
     style="stroke:#000000;stroke-width:0.25mm;fill:#fdfdfd;fill-opacity:1">
    <path
       d="M 146.52 102.721 L 146.52 18.721 L 197.4 18.721 L 197.4 28.081 L 156.6 28.081 L 156.6 55.921 L 196.68 55.921 L 196.68 65.281 L 156.6 65.281 L 156.6 93.361 L 198.12 93.361 L 198.12 102.721 L 146.52 102.721 Z M 95.16 50.761 L 95.16 9.361 A 10.556 10.556 0 0 1 95.645 6.093 A 8.727 8.727 0 0 1 97.74 2.641 A 8.664 8.664 0 0 1 103.373 0.044 A 11.772 11.772 0 0 1 104.4 0.001 L 116.04 0.001 L 116.04 8.641 L 107.76 8.641 A 4.16 4.16 0 0 0 106.419 8.838 Q 104.565 9.469 104.521 12.11 A 7.782 7.782 0 0 0 104.52 12.241 L 104.52 50.641 A 10.556 10.556 0 0 1 104.035 53.908 A 8.727 8.727 0 0 1 101.94 57.361 Q 99.36 60.001 95.16 60.001 L 93.72 60.001 L 93.72 61.441 L 95.16 61.441 A 10.851 10.851 0 0 1 98.25 61.86 A 8.415 8.415 0 0 1 101.94 64.081 A 8.967 8.967 0 0 1 104.474 69.742 A 12.056 12.056 0 0 1 104.52 70.801 L 104.52 109.201 Q 104.52 112.264 106.866 112.72 A 4.683 4.683 0 0 0 107.76 112.801 L 116.04 112.801 L 116.04 121.441 L 104.4 121.441 A 10.279 10.279 0 0 1 101.224 120.971 A 8.436 8.436 0 0 1 97.74 118.801 A 8.967 8.967 0 0 1 95.206 113.139 A 12.056 12.056 0 0 1 95.16 112.081 L 95.16 70.681 A 5.406 5.406 0 0 0 95.008 69.335 Q 94.458 67.201 91.92 67.201 L 85.8 67.201 L 85.8 54.241 L 91.92 54.241 A 4.315 4.315 0 0 0 93.241 54.056 Q 94.643 53.605 95.021 52.054 A 5.482 5.482 0 0 0 95.16 50.761 Z M 322.2 9.361 L 322.2 50.761 A 5.406 5.406 0 0 0 322.352 52.106 Q 322.902 54.241 325.44 54.241 L 331.56 54.241 L 331.56 67.201 L 325.44 67.201 A 4.315 4.315 0 0 0 324.119 67.385 Q 322.717 67.836 322.339 69.387 A 5.482 5.482 0 0 0 322.2 70.681 L 322.2 112.081 A 10.556 10.556 0 0 1 321.715 115.348 A 8.727 8.727 0 0 1 319.62 118.801 A 8.664 8.664 0 0 1 313.987 121.397 A 11.772 11.772 0 0 1 312.96 121.441 L 301.32 121.441 L 301.32 112.801 L 309.6 112.801 A 4.16 4.16 0 0 0 310.941 112.603 Q 312.795 111.972 312.839 109.331 A 7.782 7.782 0 0 0 312.84 109.201 L 312.84 70.801 A 10.556 10.556 0 0 1 313.325 67.533 A 8.727 8.727 0 0 1 315.42 64.081 Q 318 61.441 322.2 61.441 L 323.64 61.441 L 323.64 60.001 L 322.2 60.001 A 10.851 10.851 0 0 1 319.11 59.581 A 8.415 8.415 0 0 1 315.42 57.361 A 8.967 8.967 0 0 1 312.886 51.699 A 12.056 12.056 0 0 1 312.84 50.641 L 312.84 12.241 Q 312.84 9.177 310.494 8.721 A 4.683 4.683 0 0 0 309.6 8.641 L 301.32 8.641 L 301.32 0.001 L 312.96 0.001 A 10.279 10.279 0 0 1 316.136 0.47 A 8.436 8.436 0 0 1 319.62 2.641 A 8.967 8.967 0 0 1 322.154 8.302 A 12.056 12.056 0 0 1 322.2 9.361 Z M 215.52 102.721 L 215.52 93.361 L 222.72 93.361 L 222.72 28.081 L 215.52 28.081 L 215.52 18.721 L 249.48 18.721 Q 255.48 18.721 260.1 20.401 A 25.73 25.73 0 0 1 264.782 22.633 A 20.976 20.976 0 0 1 267.9 24.961 Q 271.08 27.841 272.7 31.861 A 22.692 22.692 0 0 1 274.294 39.396 A 26.35 26.35 0 0 1 274.32 40.561 L 274.32 42.001 A 19.476 19.476 0 0 1 273.942 45.909 A 16.233 16.233 0 0 1 273.24 48.361 Q 272.16 51.241 270.24 53.521 Q 268.32 55.801 265.74 57.421 Q 263.16 59.041 260.16 59.881 L 260.16 61.321 Q 266.16 63.001 270.24 67.741 A 16.773 16.773 0 0 1 274.264 77.746 A 21.765 21.765 0 0 1 274.32 79.321 L 274.32 80.761 Q 274.32 85.441 272.7 89.461 Q 271.08 93.481 267.9 96.421 A 21.528 21.528 0 0 1 262.716 99.932 A 26.613 26.613 0 0 1 260.1 101.041 Q 255.48 102.721 249.48 102.721 L 215.52 102.721 Z M 50.16 69.841 L 0 87.121 L 0 77.041 L 46.56 61.441 L 46.56 60.001 L 0 44.401 L 0 34.321 L 50.16 51.601 L 50.16 69.841 Z M 232.8 65.281 L 232.8 93.361 L 248.76 93.361 Q 255.84 93.361 260.28 89.821 A 11.527 11.527 0 0 0 264.667 81.373 A 16.367 16.367 0 0 0 264.72 80.041 L 264.72 79.321 A 16.138 16.138 0 0 0 264.129 74.84 A 12.148 12.148 0 0 0 260.52 69.061 A 14.119 14.119 0 0 0 254.475 65.904 Q 252.349 65.358 249.844 65.29 A 26.575 26.575 0 0 0 249.12 65.281 L 232.8 65.281 Z M 232.8 28.081 L 232.8 55.921 L 249.12 55.921 Q 255.153 55.921 259.079 53.309 A 13.172 13.172 0 0 0 260.52 52.201 A 12.216 12.216 0 0 0 264.533 44.611 A 17.571 17.571 0 0 0 264.72 42.001 L 264.72 41.281 A 13.584 13.584 0 0 0 264.043 36.893 A 11.284 11.284 0 0 0 260.28 31.621 A 15.704 15.704 0 0 0 253.9 28.623 Q 251.533 28.081 248.76 28.081 L 232.8 28.081 Z"
       vector-effect="non-scaling-stroke"
       id="path1"
       style="fill:#fdfdfd;fill-opacity:1" />
  </g>
</svg>
